<svg width="16px" height="16px" viewBox="0 0 16 16" xmlns="http://www.w3.org/2000/svg">
  <path fill="#212121" d="M8 5c-1.653 0 -3 1.347 -3 3s1.347 3 3 3 3 -1.347 3 -3 -1.347 -3 -3 -3zm7.7 2.516l-2.959 -1.478 1.047 -3.138c0.141 -0.425 -0.263 -0.828 -0.684 -0.684l-3.138 1.047 -1.481 -2.962c-0.2 -0.4 -0.769 -0.4 -0.969 0l-1.478 2.959L2.897 2.212c-0.425 -0.141 -0.828 0.263 -0.684 0.684l1.047 3.138 -2.959 1.481c-0.4 0.2 -0.4 0.769 0 0.969l2.959 1.478 -1.047 3.141c-0.141 0.425 0.263 0.828 0.684 0.684l3.138 -1.047 1.478 2.959c0.2 0.4 0.769 0.4 0.969 0l1.478 -2.959 3.138 1.047c0.425 0.141 0.828 -0.263 0.684 -0.684l-1.047 -3.138 2.959 -1.478c0.406 -0.203 0.406 -0.772 0.006 -0.972zm-4.872 3.313c-1.559 1.559 -4.097 1.559 -5.656 0 -1.559 -1.559 -1.559 -4.097 0 -5.656 1.559 -1.559 4.097 -1.559 5.656 0 1.559 1.559 1.559 4.097 0 5.656z"/>
</svg>

